<?xml version="1.0" encoding="UTF-8" standalone="no"?>
<svg
   width="816"
   height="400"
   xml:space="preserve"
   overflow="hidden"
   version="1.1"
   id="svg49"
   sodipodi:docname="artificial_neuron.svg"
   inkscape:version="1.3.2 (091e20e, 2023-11-25, custom)"
   inkscape:export-filename="artificial_neuron.pdf"
   inkscape:export-xdpi="96"
   inkscape:export-ydpi="96"
   xmlns:inkscape="http://www.inkscape.org/namespaces/inkscape"
   xmlns:sodipodi="http://sodipodi.sourceforge.net/DTD/sodipodi-0.dtd"
   xmlns="http://www.w3.org/2000/svg"
   xmlns:svg="http://www.w3.org/2000/svg"><defs
     id="defs49" /><sodipodi:namedview
     id="namedview49"
     pagecolor="#ffffff"
     bordercolor="#000000"
     borderopacity="0.25"
     inkscape:showpageshadow="2"
     inkscape:pageopacity="0.0"
     inkscape:pagecheckerboard="0"
     inkscape:deskcolor="#d1d1d1"
     inkscape:zoom="1.6004902"
     inkscape:cx="521.71516"
     inkscape:cy="285.84992"
     inkscape:window-width="1920"
     inkscape:window-height="974"
     inkscape:window-x="-11"
     inkscape:window-y="-11"
     inkscape:window-maximized="1"
     inkscape:current-layer="g49" /><g
     transform="translate(-232 -160)"
     id="g49"><g
       id="g48"><g
         id="g47"><g
           id="g46"><g
             id="g45"><path
               d="M666.09 311.304 771.725 311.304 771.725 416.94 666.09 416.94Z"
               stroke="#FFFF00"
               stroke-width="1.60054"
               stroke-linecap="butt"
               stroke-linejoin="miter"
               stroke-miterlimit="8"
               stroke-opacity="1"
               fill="#78206E"
               fill-rule="nonzero"
               fill-opacity="1"
               transform="matrix(1.00229 0 0 1 111.151 9.48257)"
               id="path1" /><text
               fill="#FFFFFF"
               fill-opacity="1"
               font-family="Arial,Arial_MSFontService,sans-serif"
               font-style="normal"
               font-variant="normal"
               font-weight="400"
               font-stretch="normal"
               font-size="144"
               text-anchor="start"
               direction="ltr"
               writing-mode="lr-tb"
               unicode-bidi="normal"
               text-decoration="none"
               transform="matrix(0.534731 0 0 0.533512 814.627 399)"
               id="text1">áµ </text><path
               d="M436.146 364.122C436.146 334.952 459.913 311.304 489.231 311.304 518.548 311.304 542.315 334.952 542.315 364.122 542.315 393.292 518.548 416.94 489.231 416.94 459.913 416.94 436.146 393.292 436.146 364.122Z"
               stroke="#FFFF00"
               stroke-width="1.60054"
               stroke-linecap="butt"
               stroke-linejoin="miter"
               stroke-miterlimit="8"
               stroke-opacity="1"
               fill="#78206E"
               fill-rule="evenodd"
               fill-opacity="1"
               transform="matrix(1.00229 0 0 1 111.151 9.48257)"
               id="path2" /><text
               fill="#FFFFFF"
               fill-opacity="1"
               font-family="Aptos,Aptos_MSFontService,sans-serif"
               font-style="normal"
               font-variant="normal"
               font-weight="400"
               font-stretch="normal"
               font-size="144"
               text-anchor="start"
               direction="ltr"
               writing-mode="lr-tb"
               unicode-bidi="normal"
               text-decoration="none"
               transform="matrix(0.534731 0 0 0.533512 582.048 398)"
               id="text2">Î£</text><path
               d="M542.315 363.322 660.829 363.322 660.829 364.922 542.315 364.922ZM659.762 360.921 666.164 364.122 659.762 367.323Z"
               fill="#000000"
               fill-rule="nonzero"
               fill-opacity="1"
               transform="matrix(1.00229 0 0 1 111.151 9.48257)"
               id="path3" /><path
               d="M771.725 363.322 859.002 363.322 859.002 364.922 771.725 364.922ZM857.935 360.921 864.338 364.122 857.935 367.323Z"
               fill="#000000"
               fill-rule="nonzero"
               fill-opacity="1"
               transform="matrix(1.00229 0 0 1 111.151 9.48257)"
               id="path4" /><path
               d="M232.344 221.941C232.344 205.293 245.84 191.798 262.488 191.798 279.136 191.798 292.631 205.293 292.631 221.941 292.631 238.589 279.136 252.084 262.488 252.084 245.84 252.084 232.344 238.589 232.344 221.941Z"
               stroke="#FFFF00"
               stroke-width="1.60054"
               stroke-linecap="butt"
               stroke-linejoin="miter"
               stroke-miterlimit="8"
               stroke-opacity="1"
               fill="#0B76A0"
               fill-rule="evenodd"
               fill-opacity="1"
               transform="matrix(1.00229 0 0 1 111.151 9.48257)"
               id="path5" /><text
               fill="#FFFFFF"
               fill-opacity="1"
               font-family="Cambria Math,Cambria Math_MSFontService,sans-serif"
               font-style="normal"
               font-variant="normal"
               font-weight="400"
               font-stretch="normal"
               font-size="26"
               text-anchor="start"
               direction="ltr"
               writing-mode="lr-tb"
               unicode-bidi="normal"
               text-decoration="none"
               transform="matrix(0.534731 0 0 0.533512 361.964 236)"
               id="text5">ğ‘¤</text><text
               fill="#FFFFFF"
               fill-opacity="1"
               font-family="Cambria Math,Cambria Math_MSFontService,sans-serif"
               font-style="normal"
               font-variant="normal"
               font-weight="400"
               font-stretch="normal"
               font-size="18"
               text-anchor="start"
               direction="ltr"
               writing-mode="lr-tb"
               unicode-bidi="normal"
               text-decoration="none"
               transform="matrix(0.534731 0 0 0.533512 370.67 241)"
               id="text6">1ğ‘—</text><path
               d="M232.344 296.633C232.344 279.985 245.84 266.489 262.488 266.489 279.136 266.489 292.631 279.985 292.631 296.633 292.631 313.28 279.136 326.776 262.488 326.776 245.84 326.776 232.344 313.28 232.344 296.633Z"
               stroke="#FFFF00"
               stroke-width="1.60054"
               stroke-linecap="butt"
               stroke-linejoin="miter"
               stroke-miterlimit="8"
               stroke-opacity="1"
               fill="#0B76A0"
               fill-rule="evenodd"
               fill-opacity="1"
               transform="matrix(1.00229 0 0 1 111.151 9.48257)"
               id="path6" /><text
               fill="#FFFFFF"
               fill-opacity="1"
               font-family="Cambria Math,Cambria Math_MSFontService,sans-serif"
               font-style="normal"
               font-variant="normal"
               font-weight="400"
               font-stretch="normal"
               font-size="26"
               text-anchor="start"
               direction="ltr"
               writing-mode="lr-tb"
               unicode-bidi="normal"
               text-decoration="none"
               transform="matrix(0.534731 0 0 0.533512 361.716 311)"
               id="text7">ğ‘¤</text><text
               fill="#FFFFFF"
               fill-opacity="1"
               font-family="Cambria Math,Cambria Math_MSFontService,sans-serif"
               font-style="normal"
               font-variant="normal"
               font-weight="400"
               font-stretch="normal"
               font-size="18"
               text-anchor="start"
               direction="ltr"
               writing-mode="lr-tb"
               unicode-bidi="normal"
               text-decoration="none"
               transform="matrix(0.534731 0 0 0.533512 370.918 315)"
               id="text8">2ğ‘—</text><path
               d="M232.344 372.125C232.344 355.33 245.84 341.714 262.488 341.714 279.136 341.714 292.631 355.33 292.631 372.125 292.631 388.92 279.136 402.535 262.488 402.535 245.84 402.535 232.344 388.92 232.344 372.125Z"
               stroke="#FFFF00"
               stroke-width="1.60054"
               stroke-linecap="butt"
               stroke-linejoin="miter"
               stroke-miterlimit="8"
               stroke-opacity="1"
               fill="#0B76A0"
               fill-rule="evenodd"
               fill-opacity="1"
               transform="matrix(1.00229 0 0 1 111.151 9.48257)"
               id="path8" /><text
               fill="#FFFFFF"
               fill-opacity="1"
               font-family="Cambria Math,Cambria Math_MSFontService,sans-serif"
               font-style="normal"
               font-variant="normal"
               font-weight="400"
               font-stretch="normal"
               font-size="26"
               text-anchor="start"
               direction="ltr"
               writing-mode="lr-tb"
               unicode-bidi="normal"
               text-decoration="none"
               transform="matrix(0.534731 0 0 0.533512 361.716 387)"
               id="text9">ğ‘¤</text><text
               fill="#FFFFFF"
               fill-opacity="1"
               font-family="Cambria Math,Cambria Math_MSFontService,sans-serif"
               font-style="normal"
               font-variant="normal"
               font-weight="400"
               font-stretch="normal"
               font-size="18"
               text-anchor="start"
               direction="ltr"
               writing-mode="lr-tb"
               unicode-bidi="normal"
               text-decoration="none"
               transform="matrix(0.534731 0 0 0.533512 370.918 391)"
               id="text10">3ğ‘—</text><path
               d="M232.344 518.307C232.344 501.512 245.84 487.897 262.488 487.897 279.136 487.897 292.631 501.512 292.631 518.307 292.631 535.102 279.136 548.717 262.488 548.717 245.84 548.717 232.344 535.102 232.344 518.307Z"
               stroke="#FFFF00"
               stroke-width="1.60054"
               stroke-linecap="butt"
               stroke-linejoin="miter"
               stroke-miterlimit="8"
               stroke-opacity="1"
               fill="#0B76A0"
               fill-rule="evenodd"
               fill-opacity="1"
               transform="matrix(1.00229 0 0 1 111.151 9.48257)"
               id="path10" /><text
               fill="#FFFFFF"
               fill-opacity="1"
               font-family="Cambria Math,Cambria Math_MSFontService,sans-serif"
               font-style="normal"
               font-variant="normal"
               font-weight="400"
               font-stretch="normal"
               font-size="26"
               text-anchor="start"
               direction="ltr"
               writing-mode="lr-tb"
               unicode-bidi="normal"
               text-decoration="none"
               transform="matrix(0.534731 0 0 0.533512 361.315 533)"
               id="text11">ğ‘¤</text><text
               fill="#FFFFFF"
               fill-opacity="1"
               font-family="Cambria Math,Cambria Math_MSFontService,sans-serif"
               font-style="normal"
               font-variant="normal"
               font-weight="400"
               font-stretch="normal"
               font-size="18"
               text-anchor="start"
               direction="ltr"
               writing-mode="lr-tb"
               unicode-bidi="normal"
               text-decoration="none"
               transform="matrix(0.534731 0 0 0.533512 370.517 537)"
               id="text12">ğ‘›ğ‘—</text><path
               d="M293.109 231.169 436.525 338.04 435.568 339.323 292.153 232.453ZM437.103 335.477 440.324 341.869 433.278 340.611Z"
               fill="#000000"
               fill-rule="nonzero"
               fill-opacity="1"
               transform="matrix(1.00229 0 0 1 111.151 9.48257)"
               id="path12" /><path
               d="M292.922 295.621 431.575 349.704 430.993 351.194 292.341 297.111ZM431.453 347.079 436.254 352.388 429.127 353.044Z"
               fill="#000000"
               fill-rule="nonzero"
               fill-opacity="1"
               transform="matrix(1.00229 0 0 1 111.151 9.48257)"
               id="path13" /><path
               d="M0.0450699-0.798998 138.341 7.00203 138.251 8.6-0.0450699 0.798998ZM137.411 4.54494 143.623 8.10149 137.051 10.9369Z"
               fill="#000000"
               fill-rule="nonzero"
               fill-opacity="1"
               transform="matrix(1.00229 0 0 -1 404.451 381.706)"
               id="path14" /><path
               d="M0.431062-0.674253 152.488 96.5385 151.626 97.8872-0.431062 0.674253ZM152.882 93.9408 156.552 100.086 149.434 99.3351Z"
               fill="#000000"
               fill-rule="nonzero"
               fill-opacity="1"
               transform="matrix(1.00229 0 0 -1 395.895 506.235)"
               id="path15" /><path
               d="M150.717 428.41C150.717 425.906 152.748 423.875 155.252 423.875 157.756 423.875 159.787 425.906 159.787 428.41 159.787 430.914 157.756 432.945 155.252 432.945 152.748 432.945 150.717 430.914 150.717 428.41Z"
               stroke="#000000"
               stroke-width="1.60054"
               stroke-linecap="butt"
               stroke-linejoin="miter"
               stroke-miterlimit="8"
               stroke-opacity="1"
               fill="#000000"
               fill-rule="evenodd"
               fill-opacity="1"
               transform="matrix(1.00229 0 0 1 111.151 9.48257)"
               id="path16" /><path
               d="M150.717 444.949C150.717 442.445 152.748 440.414 155.252 440.414 157.756 440.414 159.787 442.445 159.787 444.949 159.787 447.453 157.756 449.484 155.252 449.484 152.748 449.484 150.717 447.453 150.717 444.949Z"
               stroke="#000000"
               stroke-width="1.60054"
               stroke-linecap="butt"
               stroke-linejoin="miter"
               stroke-miterlimit="8"
               stroke-opacity="1"
               fill="#000000"
               fill-rule="evenodd"
               fill-opacity="1"
               transform="matrix(1.00229 0 0 1 111.151 9.48257)"
               id="path17" /><path
               d="M150.717 461.488C150.717 458.984 152.748 456.953 155.252 456.953 157.756 456.953 159.787 458.984 159.787 461.488 159.787 463.992 157.756 466.023 155.252 466.023 152.748 466.023 150.717 463.992 150.717 461.488Z"
               stroke="#000000"
               stroke-width="1.60054"
               stroke-linecap="butt"
               stroke-linejoin="miter"
               stroke-miterlimit="8"
               stroke-opacity="1"
               fill="#000000"
               fill-rule="evenodd"
               fill-opacity="1"
               transform="matrix(1.00229 0 0 1 111.151 9.48257)"
               id="path18" /><path
               d="M256.886 428.41C256.886 425.906 258.917 423.875 261.421 423.875 263.925 423.875 265.956 425.906 265.956 428.41 265.956 430.914 263.925 432.945 261.421 432.945 258.917 432.945 256.886 430.914 256.886 428.41Z"
               stroke="#000000"
               stroke-width="1.60054"
               stroke-linecap="butt"
               stroke-linejoin="miter"
               stroke-miterlimit="8"
               stroke-opacity="1"
               fill="#000000"
               fill-rule="evenodd"
               fill-opacity="1"
               transform="matrix(1.00229 0 0 1 111.151 9.48257)"
               id="path19" /><path
               d="M256.886 444.949C256.886 442.445 258.917 440.414 261.421 440.414 263.925 440.414 265.956 442.445 265.956 444.949 265.956 447.453 263.925 449.484 261.421 449.484 258.917 449.484 256.886 447.453 256.886 444.949Z"
               stroke="#000000"
               stroke-width="1.60054"
               stroke-linecap="butt"
               stroke-linejoin="miter"
               stroke-miterlimit="8"
               stroke-opacity="1"
               fill="#000000"
               fill-rule="evenodd"
               fill-opacity="1"
               transform="matrix(1.00229 0 0 1 111.151 9.48257)"
               id="path20" /><path
               d="M256.886 461.488C256.886 458.984 258.917 456.953 261.421 456.953 263.925 456.953 265.956 458.984 265.956 461.488 265.956 463.992 263.925 466.023 261.421 466.023 258.917 466.023 256.886 463.992 256.886 461.488Z"
               stroke="#000000"
               stroke-width="1.60054"
               stroke-linecap="butt"
               stroke-linejoin="miter"
               stroke-miterlimit="8"
               stroke-opacity="1"
               fill="#000000"
               fill-rule="evenodd"
               fill-opacity="1"
               transform="matrix(1.00229 0 0 1 111.151 9.48257)"
               id="path21" /><path
               d="M180.594 221.408 226.763 221.408 226.763 223.008 180.594 223.008ZM180.594 225.409C178.826 225.409 177.393 223.976 177.393 222.208 177.393 220.44 178.826 219.007 180.594 219.007 182.362 219.007 183.795 220.44 183.795 222.208 183.795 223.976 182.362 225.409 180.594 225.409ZM225.696 219.007 232.098 222.208 225.696 225.409Z"
               fill="#000000"
               fill-rule="nonzero"
               fill-opacity="1"
               transform="matrix(1.00229 0 0 1 111.151 9.48257)"
               id="path22" /><path
               d="M180.594 295.032 226.763 295.032 226.763 296.633 180.594 296.633ZM180.594 299.034C178.826 299.034 177.393 297.6 177.393 295.832 177.393 294.064 178.826 292.631 180.594 292.631 182.362 292.631 183.795 294.064 183.795 295.832 183.795 297.6 182.362 299.034 180.594 299.034ZM225.696 292.631 232.098 295.832 225.696 299.034Z"
               fill="#000000"
               fill-rule="nonzero"
               fill-opacity="1"
               transform="matrix(1.00229 0 0 1 111.151 9.48257)"
               id="path23" /><path
               d="M180.594 371.858 226.763 371.858 226.763 373.458 180.594 373.458ZM180.594 375.859C178.826 375.859 177.393 374.426 177.393 372.658 177.393 370.89 178.826 369.457 180.594 369.457 182.362 369.457 183.795 370.89 183.795 372.658 183.795 374.426 182.362 375.859 180.594 375.859ZM225.696 369.457 232.098 372.658 225.696 375.859Z"
               fill="#000000"
               fill-rule="nonzero"
               fill-opacity="1"
               transform="matrix(1.00229 0 0 1 111.151 9.48257)"
               id="path24" /><path
               d="M180.594 516.973 226.763 516.973 226.763 518.574 180.594 518.574ZM180.594 520.975C178.826 520.975 177.393 519.542 177.393 517.773 177.393 516.005 178.826 514.572 180.594 514.572 182.362 514.572 183.795 516.005 183.795 517.773 183.795 519.542 182.362 520.975 180.594 520.975ZM225.696 514.572 232.098 517.773 225.696 520.975Z"
               fill="#000000"
               fill-rule="nonzero"
               fill-opacity="1"
               transform="matrix(1.00229 0 0 1 111.151 9.48257)"
               id="path25" /><text
               fill="#000000"
               fill-opacity="1"
               font-family="Cambria Math,Cambria Math_MSFontService,sans-serif"
               font-style="normal"
               font-variant="normal"
               font-weight="400"
               font-stretch="normal"
               font-size="36"
               text-anchor="start"
               direction="ltr"
               writing-mode="lr-tb"
               unicode-bidi="normal"
               text-decoration="none"
               transform="matrix(0.534731 0 0 0.533512 256.924 232)"
               id="text25">ğ‘¥</text><text
               fill="#000000"
               fill-opacity="1"
               font-family="Cambria Math,Cambria Math_MSFontService,sans-serif"
               font-style="normal"
               font-variant="normal"
               font-weight="400"
               font-stretch="normal"
               font-size="26"
               text-anchor="start"
               direction="ltr"
               writing-mode="lr-tb"
               unicode-bidi="normal"
               text-decoration="none"
               transform="matrix(0.534731 0 0 0.533512 266.587 236)"
               id="text26">1</text><text
               fill="#000000"
               fill-opacity="1"
               font-family="Cambria Math,Cambria Math_MSFontService,sans-serif"
               font-style="normal"
               font-variant="normal"
               font-weight="400"
               font-stretch="normal"
               font-size="36"
               text-anchor="start"
               direction="ltr"
               writing-mode="lr-tb"
               unicode-bidi="normal"
               text-decoration="none"
               transform="matrix(0.534731 0 0 0.533512 256.903 307)"
               id="text27">ğ‘¥</text><text
               fill="#000000"
               fill-opacity="1"
               font-family="Cambria Math,Cambria Math_MSFontService,sans-serif"
               font-style="normal"
               font-variant="normal"
               font-weight="400"
               font-stretch="normal"
               font-size="26"
               text-anchor="start"
               direction="ltr"
               writing-mode="lr-tb"
               unicode-bidi="normal"
               text-decoration="none"
               transform="matrix(0.534731 0 0 0.533512 267.009 311)"
               id="text28">2</text><text
               fill="#000000"
               fill-opacity="1"
               font-family="Cambria Math,Cambria Math_MSFontService,sans-serif"
               font-style="normal"
               font-variant="normal"
               font-weight="400"
               font-stretch="normal"
               font-size="36"
               text-anchor="start"
               direction="ltr"
               writing-mode="lr-tb"
               unicode-bidi="normal"
               text-decoration="none"
               transform="matrix(0.534731 0 0 0.533512 256.903 386)"
               id="text29">ğ‘¥</text><text
               fill="#000000"
               fill-opacity="1"
               font-family="Cambria Math,Cambria Math_MSFontService,sans-serif"
               font-style="normal"
               font-variant="normal"
               font-weight="400"
               font-stretch="normal"
               font-size="26"
               text-anchor="start"
               direction="ltr"
               writing-mode="lr-tb"
               unicode-bidi="normal"
               text-decoration="none"
               transform="matrix(0.534731 0 0 0.533512 267.009 390)"
               id="text30">3</text><text
               fill="#000000"
               fill-opacity="1"
               font-family="Cambria Math,Cambria Math_MSFontService,sans-serif"
               font-style="normal"
               font-variant="normal"
               font-weight="400"
               font-stretch="normal"
               font-size="36"
               text-anchor="start"
               direction="ltr"
               writing-mode="lr-tb"
               unicode-bidi="normal"
               text-decoration="none"
               transform="matrix(0.534731 0 0 0.533512 256.848 528)"
               id="text31">ğ‘¥</text><text
               fill="#000000"
               fill-opacity="1"
               font-family="Cambria Math,Cambria Math_MSFontService,sans-serif"
               font-style="normal"
               font-variant="normal"
               font-weight="400"
               font-stretch="normal"
               font-size="26"
               text-anchor="start"
               direction="ltr"
               writing-mode="lr-tb"
               unicode-bidi="normal"
               text-decoration="none"
               transform="matrix(0.534731 0 0 0.533512 266.955 532)"
               id="text32">ğ‘›</text><text
               fill="#000000"
               fill-opacity="1"
               font-family="Aptos,Aptos_MSFontService,sans-serif"
               font-style="normal"
               font-variant="normal"
               font-weight="400"
               font-stretch="normal"
               font-size="36"
               text-anchor="start"
               direction="ltr"
               writing-mode="lr-tb"
               unicode-bidi="normal"
               text-decoration="none"
               transform="matrix(0.534731 0 0 0.533512 244.149 185)"
               id="text33">I</text><text
               fill="#000000"
               fill-opacity="1"
               font-family="Aptos,Aptos_MSFontService,sans-serif"
               font-style="normal"
               font-variant="normal"
               font-weight="400"
               font-stretch="normal"
               font-size="36"
               text-anchor="start"
               direction="ltr"
               writing-mode="lr-tb"
               unicode-bidi="normal"
               text-decoration="none"
               transform="matrix(0.534731 0 0 0.533512 249.095 185)"
               id="text34">nputs</text><text
               fill="#000000"
               fill-opacity="1"
               font-family="Aptos,Aptos_MSFontService,sans-serif"
               font-style="normal"
               font-variant="normal"
               font-weight="400"
               font-stretch="normal"
               font-size="36"
               text-anchor="start"
               direction="ltr"
               writing-mode="lr-tb"
               unicode-bidi="normal"
               text-decoration="none"
               transform="matrix(0.534731 0 0 0.533512 339.115 186)"
               id="text35">Weights</text><text
               fill="#000000"
               fill-opacity="1"
               font-family="Aptos, Aptos_MSFontService, sans-serif"
               font-style="normal"
               font-variant="normal"
               font-weight="400"
               font-stretch="normal"
               font-size="36px"
               text-anchor="start"
               direction="ltr"
               writing-mode="lr-tb"
               unicode-bidi="normal"
               text-decoration="none"
               transform="matrix(0.534731,0,0,0.533512,568.049,455)"
               id="text36"
               style="text-decoration:none;text-decoration-line:none"> </text><text
               fill="#000000"
               fill-opacity="1"
               font-family="Aptos, Aptos_MSFontService, sans-serif"
               font-style="normal"
               font-variant="normal"
               font-weight="400"
               font-stretch="normal"
               font-size="36px"
               text-anchor="start"
               direction="ltr"
               writing-mode="lr-tb"
               unicode-bidi="normal"
               text-decoration="none"
               transform="matrix(0.534731,0,0,0.533512,564.584,478)"
               id="text37"
               style="text-decoration:none;text-decoration-line:none" /><text
               fill="#000000"
               fill-opacity="1"
               font-family="Aptos,Aptos_MSFontService,sans-serif"
               font-style="normal"
               font-variant="normal"
               font-weight="400"
               font-stretch="normal"
               font-size="36"
               text-anchor="start"
               direction="ltr"
               writing-mode="lr-tb"
               unicode-bidi="normal"
               text-decoration="none"
               transform="matrix(0.534731 0 0 0.533512 790.014 287)"
               id="text38">Activation </text><text
               fill="#000000"
               fill-opacity="1"
               font-family="Aptos,Aptos_MSFontService,sans-serif"
               font-style="normal"
               font-variant="normal"
               font-weight="400"
               font-stretch="normal"
               font-size="36"
               text-anchor="start"
               direction="ltr"
               writing-mode="lr-tb"
               unicode-bidi="normal"
               text-decoration="none"
               transform="matrix(0.534731 0 0 0.533512 794.821 309)"
               id="text39">Function</text><path
               d="M0.800268-1.0958e-06 0.800343 56.023-0.800193 56.023-0.800268 1.0958e-06ZM-3.20107 4.38322e-06C-3.20107-1.7679-1.76791-3.20107-4.38322e-06-3.20107 1.7679-3.20107 3.20107-1.76791 3.20107-4.38322e-06 3.20107 1.7679 1.76791 3.20107 4.38322e-06 3.20107-1.7679 3.20107-3.20107 1.76791-3.20107 4.38322e-06ZM3.20115 54.956 8.40175e-05 61.3582-3.201 54.956Z"
               fill="#000000"
               fill-rule="nonzero"
               fill-opacity="1"
               transform="matrix(1.00229 0 0 -1 831.701 487.78)"
               id="path39" /><text
               fill="#000000"
               fill-opacity="1"
               font-family="Cambria Math,Cambria Math_MSFontService,sans-serif"
               font-style="normal"
               font-variant="normal"
               font-weight="400"
               font-stretch="normal"
               font-size="36"
               text-anchor="start"
               direction="ltr"
               writing-mode="lr-tb"
               unicode-bidi="normal"
               text-decoration="none"
               transform="matrix(0.534731 0 0 0.533512 824.311 509)"
               id="text40">ğœƒ</text><text
               fill="#000000"
               fill-opacity="1"
               font-family="Cambria Math,Cambria Math_MSFontService,sans-serif"
               font-style="normal"
               font-variant="normal"
               font-weight="400"
               font-stretch="normal"
               font-size="26"
               text-anchor="start"
               direction="ltr"
               writing-mode="lr-tb"
               unicode-bidi="normal"
               text-decoration="none"
               transform="matrix(0.534731 0 0 0.533512 832.749 514)"
               id="text41">ğ‘—</text><text
               fill="#000000"
               fill-opacity="1"
               font-family="Aptos,Aptos_MSFontService,sans-serif"
               font-style="normal"
               font-variant="normal"
               font-weight="400"
               font-stretch="normal"
               font-size="36"
               text-anchor="start"
               direction="ltr"
               writing-mode="lr-tb"
               unicode-bidi="normal"
               text-decoration="none"
               transform="matrix(0.534731 0 0 0.533512 789.885 534)"
               id="text42">Threshold</text><text
               fill="#000000"
               fill-opacity="1"
               font-family="'Cambria Math', 'Cambria Math_MSFontService', sans-serif"
               font-style="normal"
               font-variant="normal"
               font-weight="400"
               font-stretch="normal"
               font-size="36px"
               text-anchor="start"
               direction="ltr"
               writing-mode="lr-tb"
               unicode-bidi="normal"
               text-decoration="none"
               transform="matrix(0.534731,0,0,0.533512,987.174,379)"
               id="text43"
               style="text-decoration:none;text-decoration-line:none">a</text><text
               fill="#000000"
               fill-opacity="1"
               font-family="Cambria Math,Cambria Math_MSFontService,sans-serif"
               font-style="normal"
               font-variant="normal"
               font-weight="400"
               font-stretch="normal"
               font-size="26"
               text-anchor="start"
               direction="ltr"
               writing-mode="lr-tb"
               unicode-bidi="normal"
               text-decoration="none"
               transform="matrix(0.534731 0 0 0.533512 995.147 383)"
               id="text44">ğ‘—</text><text
               fill="#000000"
               fill-opacity="1"
               font-family="Aptos,Aptos_MSFontService,sans-serif"
               font-style="normal"
               font-variant="normal"
               font-weight="400"
               font-stretch="normal"
               font-size="36"
               text-anchor="start"
               direction="ltr"
               writing-mode="lr-tb"
               unicode-bidi="normal"
               text-decoration="none"
               transform="matrix(0.534731 0 0 0.533512 953.123 404)"
               id="text45">Activation</text></g></g></g><text
         xml:space="preserve"
         style="fill:#ffffff"
         x="172.64319"
         y="404.30017"
         id="text3"><tspan
           sodipodi:role="line"
           id="tspan1"
           x="172.64319"
           y="404.30017" /></text></g></g></svg>
